<svg xmlns="http://www.w3.org/2000/svg" width="256" height="256" viewBox="0 0 100 100"><rect width="100" height="100" rx="50" fill="#4f9d5c"></rect><path fill="#fff" d="M73.36 41.72L64.17 41.72L60.94 57.20L73.17 57.20Q73.36 57.74 73.53 58.41Q73.72 59.09 73.72 59.90L73.72 59.90Q73.72 62.78 70.66 62.78L70.66 62.78L59.77 62.78L56.70 77.63Q56.25 77.72 55.67 77.77Q55.08 77.81 54.45 77.81L54.45 77.81Q53.02 77.81 52.16 77.14Q51.30 76.46 51.30 74.93L51.30 74.93Q51.30 74.03 51.58 72.72Q51.84 71.42 52.03 70.52L52.03 70.52L53.64 62.78L40.33 62.78L37.27 77.63Q36.81 77.72 36.23 77.77Q35.64 77.81 35.02 77.81L35.02 77.81Q33.58 77.81 32.72 77.14Q31.87 76.46 31.87 74.93L31.87 74.93Q31.87 74.03 32.13 72.72Q32.41 71.42 32.67 70.52L32.67 70.52L34.30 62.78L24.13 62.78Q23.95 62.24 23.77 61.56Q23.59 60.89 23.59 60.17L23.59 60.17Q23.59 57.20 26.55 57.20L26.55 57.20L35.47 57.20L38.70 41.72L26.82 41.72Q26.64 41.18 26.42 40.55Q26.20 39.92 26.20 39.11L26.20 39.11Q26.20 36.14 29.25 36.14L29.25 36.14L39.88 36.14L42.75 22.37Q43.20 22.28 43.83 22.23Q44.47 22.19 45.00 22.19L45.00 22.19Q46.45 22.19 47.30 22.87Q48.16 23.54 48.16 25.07L48.16 25.07Q48.16 25.97 47.84 27.23Q47.52 28.49 47.34 29.48L47.34 29.48L45.91 36.14L59.22 36.14L62.19 22.37Q62.64 22.28 63.27 22.23Q63.91 22.19 64.44 22.19L64.44 22.19Q65.89 22.19 66.74 22.87Q67.59 23.54 67.59 25.07L67.59 25.07Q67.59 25.97 67.28 27.23Q66.97 28.49 66.78 29.48L66.78 29.48L65.34 36.14L75.88 36.14Q76.05 36.68 76.23 37.36Q76.41 38.03 76.41 38.84L76.41 38.84Q76.41 41.72 73.36 41.72L73.36 41.72ZM44.73 41.72L41.49 57.20L54.81 57.20L58.05 41.72L44.73 41.72Z"></path></svg>